# xmcd
#
# Track frame offsets:
# 150
# 15646
# 31183
# 44297
# 56419
# 73014
# 86589
# 98458
# 110928
# 125259
# 141261
# 154552
#
# Disc length: 2237 seconds
#
#
# Revision: 2
# Processed by: cddbd v1.5.2PL0 Copyright (c) Steve Scherf et al.
# Submitted via: FreeRIP 2.941 
#
DISCID=9608bb0c
DTITLE=Various Artist - Absolute Summer Hits 2006 Bonus-cd
DYEAR=2006
DGENRE=Top 40
TTITLE0=Basshunter - Boten Anna
TTITLE1=Texas Sunseekers - Här Kommer Sommaren
TTITLE2=Crazy Frog - We Are The Champions
TTITLE3=Elias feat. Frans - Who´s Da' Man
TTITLE4=Mange Schmidt - Glassigt
TTITLE5=Jamesy P - Nookie
TTITLE6=Sunblock feat. Robin Beck - First Time
TTITLE7=Beatfreakz - Somebody´s Watching Me
TTITLE8=Toni - Natalie
TTITLE9=Zante Dilemma - My Christina
TTITLE10=Cosmo4 - Peek-A-Boo
TTITLE11=David Lindh - Dare (If I Fall In Love)
EXTD=YEAR: 2006
EXTT0=
EXTT1=
EXTT2=
EXTT3=
EXTT4=
EXTT5=
EXTT6=
EXTT7=
EXTT8=
EXTT9=
EXTT10=
EXTT11=
PLAYORDER=
